<svg height="72" viewBox="0 0 72 72" width="72" xmlns="http://www.w3.org/2000/svg">
  <g fill="none" fill-rule="evenodd">
    <path
      d="M5.537 31.401l41.322-21.97a3.6 3.6 0 0 1 4.868 1.488l11.831 22.25a3.6 3.6 0 0 1-1.489 4.869l-41.322 21.97a3.6 3.6 0 0 1-4.868-1.488L4.049 36.27a3.6 3.6 0 0 1 1.488-4.869z"
      fill="#2A7BFF"/>
    <path
      d="M9.957 28.524l45.206-12.112a3.6 3.6 0 0 1 4.409 2.545L66.094 43.3a3.6 3.6 0 0 1-2.546 4.409L18.343 59.82a3.6 3.6 0 0 1-4.409-2.545L7.412 32.934a3.6 3.6 0 0 1 2.545-4.41z"
      fill="#6AA3FE"/>
    <path
      d="M18 28.782h46.8a3.6 3.6 0 0 1 3.6 3.6v25.2a3.6 3.6 0 0 1-3.6 3.6H18a3.6 3.6 0 0 1-3.6-3.6v-25.2a3.6 3.6 0 0 1 3.6-3.6z"
      fill="#EBF3FC"/>
    <path
      d="M23.4 55.797a3.6 3.6 0 0 0-3.6-3.597v3.6h3.6v-.003h36A3.6 3.6 0 0 1 63 52.2v3.6h-3.6v-.003H63v-21.6H19.8v21.6h3.6zM18 28.782h46.8a3.6 3.6 0 0 1 3.6 3.6v25.2a3.6 3.6 0 0 1-3.6 3.6H18a3.6 3.6 0 0 1-3.6-3.6v-25.2a3.6 3.6 0 0 1 3.6-3.6zM63 34.2v3.6a3.6 3.6 0 0 1-3.6-3.6H63zm-43.2 0h3.6a3.6 3.6 0 0 1-3.6 3.6v-3.6zm36 8.997h1.8a1.8 1.8 0 1 1 0 3.6h-1.8a1.8 1.8 0 1 1 0-3.6zm-30.6 0H27a1.8 1.8 0 0 1 0 3.6h-1.8a1.8 1.8 0 1 1 0-3.6z"
      fill="#AACBFD"/>
    <path
      d="M41.4 53.25a8.25 8.25 0 1 1 0-16.5 8.25 8.25 0 0 1 0 16.5zm-2.726-10.025c0-.535.64-.562 1.205-.562a11.53 11.53 0 0 1 1.574.15.773.773 0 0 0 .75-.73c.082-.698-.491-.886-.527-.893-.719-.15-1.45-.229-2.184-.236-1.889 0-2.933.58-2.933 2.39 0 1.523.862 2.046 2.297 2.488.725.226 1.01.376 1.01.819 0 .46-.29.65-.983.65a17.488 17.488 0 0 1-1.895-.16c-.088-.012-.691-.043-.803.73-.111.774.496.928.58.945.735.15 1.483.226 2.234.23 1.933 0 3.044-.66 3.044-2.492 0-1.399-.511-2.09-2.195-2.532-.823-.221-1.174-.261-1.174-.797zm6.105-2.103l-2.676 7.096a.943.943 0 0 0 .573 1.219.97.97 0 0 0 1.238-.559l2.676-7.097a.942.942 0 0 0-.573-1.217.97.97 0 0 0-1.238.558z"
      fill="#FF9333"/>
  </g>
</svg>
