<svg height="72" viewBox="0 0 72 72" width="72" xmlns="http://www.w3.org/2000/svg">
  <g fill="none" fill-rule="evenodd">
    <path
      d="M16.2 12.6h39.6a3.6 3.6 0 0 1 3.6 3.6v48.6a3.6 3.6 0 0 1-3.6 3.6H16.2a3.6 3.6 0 0 1-3.6-3.6V16.2a3.6 3.6 0 0 1 3.6-3.6z"
      fill="#6AA3FE"/>
    <path
      d="M18 16.2h36a1.8 1.8 0 0 1 1.8 1.8v45a1.8 1.8 0 0 1-1.8 1.8H18a1.8 1.8 0 0 1-1.8-1.8V18a1.8 1.8 0 0 1 1.8-1.8z"
      fill="#EBF3FC"/>
    <path
      d="M21.6 23.4h3.6a1.8 1.8 0 0 1 0 3.6h-3.6a1.8 1.8 0 0 1 0-3.6zM32.4 23.4h18a1.8 1.8 0 0 1 0 3.6h-18a1.8 1.8 0 0 1 0-3.6zM21.6 34.2h3.6a1.8 1.8 0 0 1 0 3.6h-3.6a1.8 1.8 0 0 1 0-3.6zM32.4 34.2h18a1.8 1.8 0 0 1 0 3.6h-18a1.8 1.8 0 0 1 0-3.6zM21.6 45h3.6a1.8 1.8 0 0 1 0 3.6h-3.6a1.8 1.8 0 0 1 0-3.6zM32.4 45h18a1.8 1.8 0 0 1 0 3.6h-18a1.8 1.8 0 0 1 0-3.6zM21.6 55.8h3.6a1.8 1.8 0 0 1 0 3.6h-3.6a1.8 1.8 0 0 1 0-3.6zM32.4 55.8h18a1.8 1.8 0 0 1 0 3.6h-18a1.8 1.8 0 0 1 0-3.6z"
      fill="#AACBFD"/>
    <path
      d="M30.6 10.8V9a5.4 5.4 0 1 1 10.8 0v1.8h1.8a3.6 3.6 0 0 1 3.6 3.6V18H25.2v-3.6a3.6 3.6 0 0 1 3.6-3.6h1.8zM34.2 9a1.8 1.8 0 1 0 3.599.001A1.8 1.8 0 0 0 34.2 9z"
      fill="#2A7BFF"/>
    <circle cx="57.6" cy="57.6" fill="#FF9333" r="14.4"/>
    <path
      d="M64.67 52.701a1.378 1.378 0 0 0-1.944 0l-6.791 6.79-2.204-2.206a1.367 1.367 0 0 0-.973-.403c-.367 0-.713.143-.971.402-.26.26-.404.604-.404.972 0 .367.143.713.403.973l3.174 3.178c.256.256.612.403.977.403.366 0 .712-.143.971-.403l7.763-7.761a1.376 1.376 0 0 0 0-1.945"
      fill="#FFF"/>
  </g>
</svg>
